<svg width="48" height="48" viewBox="0 0 48 48" fill="none" xmlns="http://www.w3.org/2000/svg">
<path fill-rule="evenodd" clip-rule="evenodd" d="M29.9984 12C30.449 11.9983 30.8954 12.0918 31.3121 12.2753C31.7293 12.459 32.1084 12.7293 32.4275 13.0706C32.7465 13.4118 32.9993 13.8172 33.1711 14.2634C33.3426 14.709 33.4301 15.1864 33.4285 15.6682L33.4285 15.6704L32.5714 15.6666H33.4285V15.6682V28.4996C33.4285 29.0058 33.0447 29.4162 32.5714 29.4162C32.098 29.4162 31.7143 29.0058 31.7143 28.4996V15.6666L31.7143 15.6627C31.7152 15.4222 31.6716 15.1839 31.586 14.9615C31.5003 14.739 31.3744 14.537 31.2153 14.3669C31.0563 14.1968 30.8674 14.0621 30.6594 13.9705C30.4514 13.8789 30.2286 13.8323 30.0037 13.8333L30.0001 13.8333H15.4294C14.956 13.8333 14.5723 13.4229 14.5723 12.9167C14.5723 12.4104 14.956 12 15.4294 12H29.9984ZM29.9984 12L29.9965 12L30.0001 12.9167V12H29.9984Z" fill="#E1E1E6"/>
<path fill-rule="evenodd" clip-rule="evenodd" d="M21.4279 20.2526C21.4279 19.7463 21.8116 19.3359 22.285 19.3359H29.1418C29.6151 19.3359 29.9989 19.7463 29.9989 20.2526C29.9989 20.7588 29.6151 21.1692 29.1418 21.1692H22.285C21.8116 21.1692 21.4279 20.7588 21.4279 20.2526Z" fill="#E1E1E6"/>
<path fill-rule="evenodd" clip-rule="evenodd" d="M21.4279 23.9205C21.4279 23.4143 21.8116 23.0039 22.285 23.0039H29.1418C29.6151 23.0039 29.9989 23.4143 29.9989 23.9205C29.9989 24.4268 29.6151 24.8372 29.1418 24.8372H22.285C21.8116 24.8372 21.4279 24.4268 21.4279 23.9205Z" fill="#E1E1E6"/>
<path fill-rule="evenodd" clip-rule="evenodd" d="M15.6319 13.8465C15.3561 13.8112 15.0764 13.8481 14.8169 13.9541C14.5574 14.0601 14.3258 14.2319 14.1422 14.4548C13.9586 14.6777 13.8283 14.945 13.7627 15.2337C13.6971 15.5223 13.698 15.8237 13.7655 16.1119C13.8329 16.4001 13.9649 16.6664 14.1499 16.888C14.4652 17.2656 14.4346 17.845 14.0816 18.1823C13.7285 18.5195 13.1867 18.4868 12.8714 18.1092C12.5013 17.6661 12.2375 17.1334 12.1026 16.557C11.9677 15.9807 11.9658 15.3779 12.0971 14.8006C12.2283 14.2232 12.4888 13.6887 12.856 13.2429C13.2233 12.7971 13.6864 12.4534 14.2054 12.2415C14.7244 12.0295 15.2837 11.9556 15.8354 12.0261C16.387 12.0967 16.9143 12.3095 17.372 12.6463C17.8296 12.9832 18.2039 13.4339 18.4625 13.9597C18.7212 14.4855 18.8565 15.0707 18.8568 15.6648V30.3311C18.8569 30.6281 18.9246 30.9207 19.0539 31.1836C19.1832 31.4466 19.3704 31.6719 19.5992 31.8403C19.828 32.0087 20.0917 32.1152 20.3675 32.1504C20.6433 32.1857 20.923 32.1487 21.1825 32.0428C21.442 31.9368 21.6735 31.7649 21.8572 31.5421C22.0408 31.3192 22.171 31.0519 22.2367 30.7632C22.3023 30.4745 22.3013 30.1732 22.2339 29.885C22.1664 29.5968 22.0345 29.3305 21.8495 29.1089C21.6244 28.8394 21.5684 28.4536 21.7065 28.1238C21.8445 27.7939 22.1509 27.5816 22.4887 27.5816H34.4881C34.732 27.5816 34.9644 27.6928 35.127 27.8872C35.5683 28.4149 35.8573 29.0679 35.9592 29.7674C36.061 30.4669 35.9713 31.183 35.701 31.8292C35.4306 32.4754 34.991 33.0241 34.4354 33.409C33.8799 33.7938 33.2322 33.9984 32.5704 33.9981H20.571C20.552 33.9981 20.5331 33.9975 20.5144 33.9962C20.3975 33.9941 20.2806 33.9856 20.164 33.9707C19.6124 33.9002 19.0851 33.6874 18.6274 33.3505C18.1698 33.0137 17.7955 32.563 17.5368 32.0372C17.2782 31.5114 17.1429 30.9262 17.1426 30.3321V15.6658C17.1424 15.3687 17.0748 15.0761 16.9455 14.8132C16.8161 14.5503 16.629 14.325 16.4002 14.1566C16.1714 13.9881 15.9077 13.8817 15.6319 13.8465ZM23.5393 32.1648H32.5704C32.9014 32.165 33.2257 32.0627 33.5035 31.8703C33.7813 31.6778 34.0011 31.4035 34.1363 31.0804C34.2715 30.7573 34.3163 30.3992 34.2654 30.0495C34.2327 29.8249 34.1614 29.6099 34.0561 29.4149H23.8909C23.8929 29.4232 23.8948 29.4315 23.8968 29.4398C24.0317 30.0162 24.0336 30.619 23.9023 31.1963C23.8248 31.5372 23.7023 31.8632 23.5393 32.1648Z" fill="#E1E1E6"/>
</svg>
