<svg width="48" height="48" viewBox="0 0 48 48" fill="none" xmlns="http://www.w3.org/2000/svg">
<path fill-rule="evenodd" clip-rule="evenodd" d="M19.7017 10C19.7017 9.44772 20.1432 9 20.6879 9H26.15C26.6946 9 27.1362 9.44772 27.1362 10C27.1362 10.5523 26.6946 11 26.15 11H20.6879C20.1432 11 19.7017 10.5523 19.7017 10ZM23.4189 14.6923C18.4331 14.6923 14.3914 18.7906 14.3914 23.8462C14.3914 28.9017 18.4331 33 23.4189 33C28.4047 33 32.4465 28.9017 32.4465 23.8462C32.4465 18.7906 28.4047 14.6923 23.4189 14.6923ZM12.4189 23.8462C12.4189 17.6861 17.3438 12.6923 23.4189 12.6923C29.4941 12.6923 34.4189 17.6861 34.4189 23.8462C34.4189 30.0063 29.4941 35 23.4189 35C17.3438 35 12.4189 30.0063 12.4189 23.8462ZM28.6225 18.5693C29.0076 18.9599 29.0076 19.593 28.6225 19.9835L24.1163 24.5528C23.7312 24.9433 23.1067 24.9433 22.7216 24.5528C22.3365 24.1623 22.3365 23.5291 22.7216 23.1386L27.2278 18.5693C27.6129 18.1788 28.2374 18.1788 28.6225 18.5693Z" fill="#00875F"/>
</svg>
